<?xml version="1.0" standalone="no"?>
<!DOCTYPE svg PUBLIC "-//W3C//DTD SVG 20010904//EN"
 "http://www.w3.org/TR/2001/REC-SVG-20010904/DTD/svg10.dtd">
<svg version="1.0" xmlns="http://www.w3.org/2000/svg"
 width="2000.000000pt" height="2000.000000pt" viewBox="0 0 2000.000000 2000.000000"
 preserveAspectRatio="xMidYMid meet">
<metadata>
Created by potrace 1.11, written by Peter Selinger 2001-2013
</metadata>
<g transform="translate(0.000000,2000.000000) scale(0.100000,-0.100000)"
fill="#000000" stroke="none">
<path d="M13338 19436 c-1 -2 -47 -6 -100 -10 -53 -3 -102 -8 -110 -10 -7 -3
-40 -7 -73 -10 -67 -7 -84 -9 -170 -24 -33 -6 -85 -15 -115 -21 -169 -29 -451
-104 -680 -181 -141 -46 -489 -175 -547 -201 -24 -10 -48 -19 -54 -19 -6 0
-25 -6 -42 -14 -18 -7 -63 -25 -102 -39 -448 -165 -879 -340 -1150 -468 -38
-18 -72 -33 -75 -34 -12 -3 -315 -158 -400 -205 -153 -85 -482 -289 -500 -310
-3 -3 -108 -78 -235 -165 -126 -88 -237 -165 -245 -172 -8 -7 -67 -49 -130
-93 -192 -135 -284 -202 -1067 -783 -74 -54 -381 -275 -429 -307 -33 -22 -227
-172 -242 -187 -7 -6 -33 -29 -59 -50 -58 -48 -163 -153 -204 -204 -18 -23
-59 -54 -100 -75 -258 -136 -549 -525 -939 -1259 -26 -49 -162 -317 -302 -595
-139 -278 -278 -545 -308 -593 -30 -49 -64 -103 -75 -121 -28 -46 -318 -496
-345 -536 -34 -49 -502 -774 -525 -812 -5 -10 -62 -99 -125 -200 -63 -100
-119 -190 -125 -200 -5 -9 -35 -58 -65 -108 -63 -104 -51 -84 -156 -265 -549
-943 -939 -1884 -1210 -2915 -30 -116 -43 -165 -54 -215 -4 -22 -11 -49 -13
-60 -21 -81 -94 -429 -103 -490 -3 -16 -11 -68 -19 -115 -20 -119 -53 -345
-60 -405 -3 -27 -8 -69 -10 -92 -12 -105 -15 -132 -21 -198 -21 -235 -28 -422
-29 -700 0 -230 10 -511 20 -560 2 -11 7 -56 10 -100 3 -44 10 -111 16 -150
12 -87 18 -129 24 -180 3 -22 7 -47 10 -55 2 -8 7 -35 10 -60 4 -25 10 -63 15
-85 5 -22 12 -55 15 -73 28 -163 168 -646 219 -757 8 -16 26 -59 41 -95 77
-184 215 -418 360 -610 23 -30 66 -91 95 -135 30 -44 58 -84 62 -90 4 -5 37
-48 73 -95 73 -95 141 -180 180 -225 245 -281 491 -515 775 -738 136 -108 410
-287 527 -346 73 -37 257 -99 388 -130 275 -67 269 -65 345 -81 25 -5 88 -19
140 -30 52 -11 104 -22 116 -24 17 -3 114 -23 254 -51 14 -3 41 -8 60 -11 19
-2 55 -9 80 -14 38 -8 142 -27 295 -55 41 -7 273 -45 310 -51 17 -2 41 -7 55
-9 49 -10 66 -13 145 -25 44 -7 89 -14 100 -16 11 -2 38 -7 60 -9 22 -3 65
-10 95 -15 118 -20 159 -27 225 -35 28 -3 57 -8 65 -10 8 -2 35 -6 60 -9 25
-3 54 -8 65 -10 24 -4 96 -15 150 -21 22 -3 98 -14 170 -25 71 -11 150 -22
175 -25 25 -3 56 -8 70 -10 14 -2 79 -11 145 -20 127 -16 172 -23 220 -30 17
-3 55 -7 85 -10 30 -3 66 -8 78 -11 13 -3 41 -7 63 -9 21 -3 58 -7 82 -10 33
-4 456 -57 722 -90 22 -2 60 -7 85 -10 25 -3 65 -7 90 -10 25 -3 63 -8 85 -10
54 -5 135 -15 165 -20 14 -2 57 -7 95 -10 39 -4 81 -8 95 -10 14 -2 48 -6 75
-9 28 -3 70 -8 95 -10 25 -3 72 -8 105 -11 33 -3 71 -8 85 -10 24 -4 118 -14
185 -20 114 -10 193 -18 210 -21 11 -2 49 -6 85 -9 67 -5 147 -14 190 -20 14
-2 59 -7 100 -10 41 -3 89 -7 106 -10 17 -2 64 -6 105 -10 41 -3 90 -8 109
-10 19 -2 67 -7 105 -10 39 -3 86 -8 105 -10 19 -3 67 -7 105 -10 39 -3 90 -7
115 -10 25 -2 73 -7 108 -10 34 -3 88 -7 120 -10 31 -3 80 -7 107 -10 68 -5
180 -15 235 -20 25 -2 81 -7 125 -10 44 -3 103 -8 130 -10 28 -3 82 -7 120
-10 39 -3 93 -7 120 -10 59 -5 171 -14 270 -20 39 -3 93 -7 120 -10 28 -2 93
-7 145 -10 52 -3 118 -8 145 -10 73 -6 186 -14 300 -20 55 -3 125 -7 155 -10
83 -7 285 -21 455 -30 55 -3 128 -8 163 -10 64 -5 239 -15 352 -20 64 -3 236
-12 375 -20 39 -2 133 -6 210 -10 77 -3 181 -8 230 -10 212 -11 390 -18 745
-30 85 -3 205 -8 265 -10 291 -11 694 -21 1265 -30 234 -4 460 -8 503 -9 42
-1 81 0 85 4 5 3 8 2057 8 4564 l-1 4560 -141 65 c-77 36 -178 84 -225 105
-46 22 -129 61 -184 86 -55 26 -122 58 -150 70 -27 12 -95 44 -150 69 -55 26
-133 63 -174 81 -66 31 -77 40 -121 104 -114 168 -228 273 -459 425 -233 153
-562 300 -886 395 -109 32 -300 82 -350 92 -11 2 -54 10 -95 19 -41 8 -88 17
-104 19 -16 3 -52 10 -80 15 -28 6 -69 13 -91 16 -22 3 -51 7 -65 10 -14 2
-45 7 -70 10 -25 3 -54 7 -65 9 -12 2 -52 7 -90 11 -39 3 -88 8 -110 10 -276
29 -504 39 -890 39 -279 0 -563 -8 -675 -19 -19 -2 -79 -6 -133 -10 -53 -3
-105 -8 -115 -10 -9 -1 -53 -6 -97 -9 -44 -4 -96 -9 -115 -11 -19 -2 -57 -7
-85 -10 -27 -3 -61 -7 -75 -10 -14 -3 -45 -7 -70 -10 -25 -3 -56 -8 -70 -11
-14 -3 -36 -8 -50 -10 -14 -2 -36 -7 -50 -10 -14 -3 -36 -8 -50 -10 -14 -3
-54 -12 -89 -20 -36 -9 -73 -17 -82 -19 -75 -15 -376 -108 -489 -152 -259
-100 -485 -205 -654 -302 -49 -28 -91 -51 -93 -51 -23 0 -479 -310 -589 -400
-17 -14 -51 -41 -75 -60 -228 -182 -438 -381 -664 -625 -60 -65 -123 -133
-140 -151 -16 -18 -61 -67 -100 -110 -38 -43 -152 -161 -251 -263 -175 -179
-206 -213 -304 -331 -62 -75 -268 -281 -308 -310 l-34 -23 7 119 c3 66 8 148
10 184 2 36 6 117 10 180 3 63 8 144 10 180 2 36 7 112 10 170 3 58 8 137 10
175 3 39 7 111 10 160 3 50 7 110 10 135 8 76 14 142 20 210 11 121 15 165 20
220 5 56 12 136 20 225 3 28 7 75 10 105 3 30 7 80 10 110 11 123 16 177 20
210 2 19 7 71 10 115 4 44 8 98 10 120 2 22 7 67 10 100 5 66 14 158 20 220 2
22 6 74 10 115 3 41 8 91 10 110 2 19 7 64 10 100 3 36 8 85 10 110 5 51 13
141 20 233 3 34 7 78 10 97 3 19 7 67 10 105 3 39 8 95 11 125 10 106 13 146
19 210 13 136 16 164 19 167 2 3 50 -3 107 -11 136 -20 245 -32 363 -41 39 -3
112 -8 161 -12 197 -16 925 -8 1090 12 17 2 64 7 105 11 41 3 83 8 93 10 10 2
48 6 85 10 36 3 75 8 87 10 11 2 43 6 70 9 28 3 57 8 65 10 8 3 35 7 60 10 25
3 83 13 130 21 47 9 96 18 110 21 165 29 551 123 766 187 171 50 484 158 561
192 17 8 37 14 45 14 8 0 18 4 23 8 6 4 48 23 95 42 47 18 89 36 93 40 5 4 48
-17 97 -46 49 -30 92 -54 95 -54 3 0 35 -14 71 -30 77 -36 245 -93 329 -111
33 -7 62 -13 65 -14 3 -1 28 -5 55 -10 28 -4 59 -9 70 -11 11 -2 47 -7 80 -10
33 -3 71 -7 85 -10 29 -5 379 -5 430 0 19 2 71 7 114 11 43 4 86 8 95 10 9 1
39 6 66 9 523 71 1321 336 1685 560 216 132 416 342 533 557 35 63 96 206 102
239 2 8 4 15 5 15 3 0 28 120 36 170 6 41 6 239 0 267 -3 13 -8 39 -10 58 -37
258 -175 573 -399 910 -63 95 -179 260 -200 285 -4 6 -38 52 -74 104 -62 86
-68 102 -95 210 -34 139 -80 336 -103 441 -14 69 -81 328 -97 380 -48 158 -80
256 -88 275 -5 11 -16 40 -24 65 -34 104 -282 752 -377 985 -193 471 -446 800
-789 1023 -183 119 -490 233 -725 268 -27 4 -56 8 -63 10 -7 1 -43 5 -80 9
-37 3 -87 8 -112 11 -52 5 -586 14 -592 10z m-7009 -3839 c-42 -40 -119 -100
-124 -95 -5 5 138 127 144 122 2 -2 -7 -14 -20 -27z"/>
</g>
</svg>
